<svg width="1080" height="2400" viewBox="0 0 1080 2400" fill="none" xmlns="http://www.w3.org/2000/svg">
  <defs>
    <linearGradient id="bg" x1="540" y1="0" x2="540" y2="2400" gradientUnits="userSpaceOnUse">
      <stop stop-color="#090B18"/>
      <stop offset="0.32" stop-color="#121834"/>
      <stop offset="0.68" stop-color="#151224"/>
      <stop offset="1" stop-color="#090A12"/>
    </linearGradient>
    <radialGradient id="heroGlow" cx="0" cy="0" r="1" gradientUnits="userSpaceOnUse" gradientTransform="translate(538 284) rotate(90) scale(296 340)">
      <stop stop-color="#F7E5B1" stop-opacity="0.95"/>
      <stop offset="0.28" stop-color="#E0B870" stop-opacity="0.46"/>
      <stop offset="0.62" stop-color="#85604A" stop-opacity="0.16"/>
      <stop offset="1" stop-color="#0C1020" stop-opacity="0"/>
    </radialGradient>
    <linearGradient id="gold" x1="0" y1="0" x2="1" y2="1">
      <stop stop-color="#FFE7B0"/>
      <stop offset="0.45" stop-color="#D9AD67"/>
      <stop offset="1" stop-color="#8F6434"/>
    </linearGradient>
    <linearGradient id="glass" x1="180" y1="0" x2="900" y2="2400" gradientUnits="userSpaceOnUse">
      <stop stop-color="#FFFFFF" stop-opacity="0.16"/>
      <stop offset="1" stop-color="#FFFFFF" stop-opacity="0.04"/>
    </linearGradient>
    <linearGradient id="sectionFade" x1="540" y1="700" x2="540" y2="2300" gradientUnits="userSpaceOnUse">
      <stop stop-color="#111624" stop-opacity="0"/>
      <stop offset="0.12" stop-color="#111624" stop-opacity="0.35"/>
      <stop offset="1" stop-color="#090A12" stop-opacity="0.82"/>
    </linearGradient>
    <filter id="blurSoft" x="-20%" y="-20%" width="140%" height="140%">
      <feGaussianBlur stdDeviation="22"/>
    </filter>
    <filter id="blurTiny" x="-20%" y="-20%" width="140%" height="140%">
      <feGaussianBlur stdDeviation="5"/>
    </filter>
    <filter id="shadow" x="-20%" y="-20%" width="140%" height="140%">
      <feDropShadow dx="0" dy="20" stdDeviation="20" flood-color="#000000" flood-opacity="0.32"/>
    </filter>
    <style>
      .script { font-family: Georgia, "Times New Roman", serif; font-style: italic; }
      .serif { font-family: Georgia, "Times New Roman", serif; }
      .sans { font-family: Arial, Helvetica, sans-serif; }
      .gold { fill: #E7C78A; }
      .ivory { fill: #F6EFE1; }
      .muted { fill: #C5B69B; }
      .stroke-gold { stroke: #B88A4E; }
    </style>
  </defs>

  <rect width="1080" height="2400" fill="url(#bg)"/>
  <rect width="1080" height="2400" fill="url(#sectionFade)"/>

  <circle cx="540" cy="258" r="210" fill="url(#heroGlow)"/>
  <circle cx="540" cy="258" r="144" fill="#F9ECC7" fill-opacity="0.42"/>
  <circle cx="540" cy="258" r="118" fill="#FFF5D7" fill-opacity="0.82"/>

  <g opacity="0.88">
    <path d="M90 170C240 130 360 120 540 132C700 144 822 138 990 110" stroke="#E3B66F" stroke-opacity="0.5" stroke-width="4"/>
    <path d="M40 240C240 210 450 218 600 234C774 252 888 246 1040 226" stroke="#E3B66F" stroke-opacity="0.4" stroke-width="3"/>
    <path d="M70 316C260 298 366 314 540 328C738 344 858 350 1014 332" stroke="#E3B66F" stroke-opacity="0.3" stroke-width="3"/>
  </g>

  <g>
    <rect x="156" y="150" width="22" height="84" rx="11" fill="#FFDA8D" fill-opacity="0.72"/>
    <rect x="154" y="132" width="26" height="30" rx="6" stroke="#F3D49A" stroke-opacity="0.8" stroke-width="3"/>
    <rect x="278" y="182" width="20" height="72" rx="10" fill="#FFDA8D" fill-opacity="0.65"/>
    <rect x="276" y="166" width="24" height="26" rx="6" stroke="#F3D49A" stroke-opacity="0.7" stroke-width="3"/>
    <rect x="788" y="144" width="22" height="82" rx="11" fill="#FFDA8D" fill-opacity="0.7"/>
    <rect x="786" y="126" width="26" height="30" rx="6" stroke="#F3D49A" stroke-opacity="0.8" stroke-width="3"/>
    <rect x="904" y="198" width="20" height="72" rx="10" fill="#FFDA8D" fill-opacity="0.6"/>
    <rect x="902" y="182" width="24" height="26" rx="6" stroke="#F3D49A" stroke-opacity="0.7" stroke-width="3"/>
  </g>

  <g opacity="0.95">
    <circle cx="130" cy="160" r="4" fill="#FFF3C9"/>
    <circle cx="248" cy="274" r="3" fill="#FFD98B"/>
    <circle cx="720" cy="120" r="3" fill="#FFF3C9"/>
    <circle cx="956" cy="152" r="4" fill="#FFE1A7"/>
    <circle cx="904" cy="356" r="3" fill="#FFE1A7"/>
    <circle cx="184" cy="352" r="2.5" fill="#FFD98B"/>
    <circle cx="322" cy="106" r="2.5" fill="#FFF3C9"/>
    <circle cx="660" cy="318" r="4" fill="#FFF3C9"/>
    <circle cx="524" cy="408" r="3" fill="#FFD98B"/>
    <circle cx="866" cy="456" r="3" fill="#FFE1A7"/>
    <circle cx="98" cy="456" r="2.5" fill="#FFF3C9"/>
  </g>

  <g filter="url(#blurSoft)">
    <ellipse cx="170" cy="670" rx="96" ry="58" fill="#E1A857" fill-opacity="0.22"/>
    <ellipse cx="920" cy="670" rx="116" ry="66" fill="#E1A857" fill-opacity="0.18"/>
  </g>

  <rect x="58" y="72" width="964" height="2256" rx="42" fill="url(#glass)" stroke="#E1B56B" stroke-opacity="0.24" stroke-width="2"/>

  <text x="540" y="462" text-anchor="middle" class="sans" font-size="28" letter-spacing="8" fill="#D9BE8B">AN EVENING OF VOWS, LIGHT, AND LEGACY</text>
  <text x="540" y="560" text-anchor="middle" class="script gold" font-size="94">Aarohi &amp; Veer</text>
  <text x="540" y="628" text-anchor="middle" class="serif ivory" font-size="44">invite you to a moonlit wedding celebration</text>
  <text x="540" y="694" text-anchor="middle" class="serif muted" font-size="28">Saturday, 14 November 2026  •  Jaipur  •  7:30 PM onwards</text>

  <rect x="318" y="746" width="214" height="62" rx="31" fill="#D7AE6B"/>
  <rect x="548" y="746" width="214" height="62" rx="31" fill="#0D1222" stroke="#D7AE6B" stroke-width="2"/>
  <text x="425" y="786" text-anchor="middle" class="sans" font-size="24" fill="#111320">View Events</text>
  <text x="655" y="786" text-anchor="middle" class="sans" font-size="24" fill="#E9D8B2">RSVP</text>

  <text x="540" y="908" text-anchor="middle" class="script gold" font-size="56">Our Story</text>
  <line x1="210" y1="892" x2="396" y2="892" stroke="#B88A4E" stroke-opacity="0.6" stroke-width="2"/>
  <line x1="684" y1="892" x2="870" y2="892" stroke="#B88A4E" stroke-opacity="0.6" stroke-width="2"/>

  <g filter="url(#shadow)">
    <rect x="122" y="964" width="836" height="286" rx="36" fill="#0E1322" fill-opacity="0.72" stroke="#E0B36B" stroke-opacity="0.22" stroke-width="2"/>
  </g>

  <g>
    <circle cx="224" cy="1058" r="56" fill="#101A34" stroke="#D8AA63" stroke-width="2"/>
    <circle cx="224" cy="1058" r="34" fill="#F3D8A2" fill-opacity="0.16"/>
    <text x="224" y="1068" text-anchor="middle" class="serif gold" font-size="22">2019</text>
    <text x="328" y="1038" class="sans" font-size="22" fill="#F3E7CB" letter-spacing="2">THE FIRST MEETING</text>
    <text x="328" y="1082" class="serif muted" font-size="28">What began as one unexpected conversation</text>
    <text x="328" y="1120" class="serif muted" font-size="28">became the calmest, easiest kind of love.</text>

    <circle cx="224" cy="1172" r="7" fill="#D8AA63"/>
    <line x1="224" y1="1114" x2="224" y2="1218" stroke="#B88A4E" stroke-width="2" stroke-opacity="0.6"/>

    <circle cx="856" cy="1058" r="56" fill="#101A34" stroke="#D8AA63" stroke-width="2"/>
    <circle cx="856" cy="1058" r="34" fill="#F3D8A2" fill-opacity="0.16"/>
    <text x="856" y="1068" text-anchor="middle" class="serif gold" font-size="22">2023</text>
    <text x="410" y="1178" class="sans" font-size="22" fill="#F3E7CB" letter-spacing="2">THE PROPOSAL</text>
    <text x="410" y="1218" class="serif muted" font-size="28">Beneath warm lights and a velvet sky,</text>
    <text x="410" y="1256" class="serif muted" font-size="28">one quiet question turned into forever.</text>
  </g>

  <text x="540" y="1378" text-anchor="middle" class="script gold" font-size="56">Evening Celebrations</text>
  <line x1="144" y1="1362" x2="360" y2="1362" stroke="#B88A4E" stroke-opacity="0.6" stroke-width="2"/>
  <line x1="720" y1="1362" x2="936" y2="1362" stroke="#B88A4E" stroke-opacity="0.6" stroke-width="2"/>

  <g filter="url(#shadow)">
    <rect x="104" y="1430" width="258" height="228" rx="28" fill="#11182C" stroke="#D8AA63" stroke-opacity="0.26" stroke-width="2"/>
    <rect x="411" y="1430" width="258" height="228" rx="28" fill="#11182C" stroke="#D8AA63" stroke-opacity="0.26" stroke-width="2"/>
    <rect x="718" y="1430" width="258" height="228" rx="28" fill="#11182C" stroke="#D8AA63" stroke-opacity="0.26" stroke-width="2"/>
  </g>

  <g>
    <circle cx="233" cy="1498" r="24" fill="#E0B36B" fill-opacity="0.16" stroke="#D8AA63" stroke-width="2"/>
    <text x="233" y="1506" text-anchor="middle" class="serif gold" font-size="24">1</text>
    <text x="233" y="1558" text-anchor="middle" class="serif ivory" font-size="34">Cocktail Hour</text>
    <text x="233" y="1602" text-anchor="middle" class="sans" font-size="20" fill="#D8AA63" letter-spacing="2">6:30 PM</text>
    <text x="233" y="1638" text-anchor="middle" class="serif muted" font-size="24">Moon Courtyard</text>

    <circle cx="540" cy="1498" r="24" fill="#E0B36B" fill-opacity="0.16" stroke="#D8AA63" stroke-width="2"/>
    <text x="540" y="1506" text-anchor="middle" class="serif gold" font-size="24">2</text>
    <text x="540" y="1558" text-anchor="middle" class="serif ivory" font-size="34">Varmala</text>
    <text x="540" y="1602" text-anchor="middle" class="sans" font-size="20" fill="#D8AA63" letter-spacing="2">8:00 PM</text>
    <text x="540" y="1638" text-anchor="middle" class="serif muted" font-size="24">Lantern Canopy</text>

    <circle cx="847" cy="1498" r="24" fill="#E0B36B" fill-opacity="0.16" stroke="#D8AA63" stroke-width="2"/>
    <text x="847" y="1506" text-anchor="middle" class="serif gold" font-size="24">3</text>
    <text x="847" y="1558" text-anchor="middle" class="serif ivory" font-size="34">Reception</text>
    <text x="847" y="1602" text-anchor="middle" class="sans" font-size="20" fill="#D8AA63" letter-spacing="2">9:30 PM</text>
    <text x="847" y="1638" text-anchor="middle" class="serif muted" font-size="24">Sapphire Hall</text>
  </g>

  <g filter="url(#shadow)">
    <rect x="102" y="1738" width="876" height="274" rx="34" fill="#101624" stroke="#D8AA63" stroke-opacity="0.24" stroke-width="2"/>
  </g>
  <rect x="136" y="1772" width="324" height="206" rx="28" fill="#19213A"/>
  <circle cx="298" cy="1866" r="78" fill="#F7E5B1" fill-opacity="0.18"/>
  <circle cx="298" cy="1866" r="56" fill="#F7E5B1" fill-opacity="0.5"/>
  <circle cx="298" cy="1866" r="46" fill="#FFF0C9" fill-opacity="0.82"/>
  <path d="M200 1910C234 1868 254 1858 284 1846C302 1838 326 1832 364 1828" stroke="#E5BB79" stroke-width="3" stroke-linecap="round" opacity="0.55"/>

  <text x="506" y="1818" class="script gold" font-size="48">Venue Spotlight</text>
  <text x="506" y="1872" class="serif ivory" font-size="38">The Imperial Moon Garden</text>
  <text x="506" y="1918" class="serif muted" font-size="28">A candlelit courtyard wrapped in florals, music,</text>
  <text x="506" y="1954" class="serif muted" font-size="28">and soft gold light beneath velvet skies.</text>
  <rect x="506" y="1986" width="172" height="50" rx="25" fill="#D7AE6B"/>
  <text x="592" y="2018" text-anchor="middle" class="sans" font-size="20" fill="#111320">Open Map</text>

  <text x="540" y="2112" text-anchor="middle" class="script gold" font-size="54">Style &amp; Details</text>
  <g>
    <rect x="144" y="2160" width="792" height="114" rx="26" fill="#0F1525" stroke="#D8AA63" stroke-opacity="0.22" stroke-width="2"/>
    <text x="186" y="2208" class="serif ivory" font-size="28">Dress Code</text>
    <text x="426" y="2208" class="serif muted" font-size="26">Black tie • jewel tones • evening elegance</text>
    <text x="186" y="2250" class="serif ivory" font-size="28">Signature Touches</text>
    <text x="454" y="2250" class="serif muted" font-size="26">live sitar ensemble • champagne tower • midnight supper</text>
  </g>

  <g filter="url(#blurTiny)" opacity="0.8">
    <circle cx="166" cy="2142" r="8" fill="#F8D58E"/>
    <circle cx="914" cy="2136" r="8" fill="#F8D58E"/>
    <circle cx="968" cy="1684" r="10" fill="#F8D58E"/>
    <circle cx="126" cy="1690" r="10" fill="#F8D58E"/>
    <circle cx="902" cy="832" r="8" fill="#F8D58E"/>
    <circle cx="176" cy="846" r="8" fill="#F8D58E"/>
  </g>
</svg>
